<svg id="Layer_1" data-name="Layer 1" xmlns="http://www.w3.org/2000/svg" viewBox="0 0 40.8 51.38"><defs><style>.cls-1{fill-rule:evenodd;}</style></defs><title>like</title><path class="cls-1" d="M50.09,42.55a28.33,28.33,0,0,1,1.12-6.25c1.13-4.33-1.77-8.49-5.28-10.07a1.8,1.8,0,0,0-2.12.25,2.27,2.27,0,0,0-.27.26c0,.18,0,.38,0,.59,0,.92,0,1.85,0,2.72s0,1.38-.09,1.93c-.33,3.5-1,5.47-3,9.36a16.44,16.44,0,0,1-3.74,4.71c-.48.44-2.08,1.81-2.12,1.84-.32.29-.59.53-.83.77-2.62,6.87-2.43,17.52.47,22.86a69.69,69.69,0,0,0,14,1.82A3.93,3.93,0,0,1,46.9,70.1a4.11,4.11,0,0,1,1.22-2.89,4.27,4.27,0,0,1-2.61-4.86,4.87,4.87,0,0,1,1.12-2.62c-1.6-.91-2.28-2.58-2-4.83a4.66,4.66,0,0,1,2.83-4.07,4.57,4.57,0,0,1-.84-3.55C46.88,44.53,48.27,42.88,50.09,42.55ZM51.2,44.4a1,1,0,0,1-.42.09c-1.08,0-2,.88-2.17,3s.45,2.55,2.4,3a32.26,32.26,0,0,0,5.24.51c1.93.06,4,.07,5.88,0L63,51a1,1,0,0,1,1,1,1,1,0,0,1-1,1l-.87,0c-1.93,0-4,0-6-.05-1.58,0-3-.15-4.06-.29a.21.21,0,0,1-.11,0h-.3l-.78,0-1.29,0h-.82c-1.11,0-2,.81-2.2,2.56-.27,2.07.48,3.08,2.66,3.3a84.32,84.32,0,0,0,11.3.24,1,1,0,1,1,.18,2,81.22,81.22,0,0,1-9.19,0h-.25l-.47,0q-.63,0-1.5,0c-1,0-1.65.58-1.86,2.06-.25,1.73.61,2.82,2.69,3a74,74,0,0,0,11.15,0,1,1,0,0,1,.24,2,67.66,67.66,0,0,1-7.66.2h0a.66.66,0,0,1-.2,0H53l-1.75,0A2.44,2.44,0,0,0,48.9,70.1c0,1.53.86,2.27,3.3,2.52a33.73,33.73,0,0,0,9-.38,1.26,1.26,0,0,1,.43,0,1.5,1.5,0,0,0,.27-.12c1.19-.57,1.84-2,1.7-5.33a1,1,0,0,1,.42-.87c2.21-1.54,2.57-3.31,1.73-6.17a1,1,0,0,1,.77-1.27C68,58.15,69,54,67.69,52.84a1,1,0,0,1,0-1.48A5.4,5.4,0,0,0,68.8,48.1c0-2.26-.84-3.34-3.07-3.71A34.28,34.28,0,0,0,61.58,44a67.56,67.56,0,0,0-7.88.19l-1.76.15-.64.07ZM62.74,73.88a6.27,6.27,0,0,1-.92.35l-.4.1-.32.08-.13,0c-5.24,1.42-18.09,1.38-27.57-1.09a1,1,0,0,1-.61-.45c-3.46-5.83-3.7-17.61-.74-25.17a1.08,1.08,0,0,1,.23-.34c.31-.31.65-.63,1.07-1,.06,0,1.64-1.4,2.1-1.82a14.52,14.52,0,0,0,3.3-4.15c1.91-3.68,2.48-5.4,2.78-8.63,0-.49.07-1.09.08-1.76,0-.84,0-1.73,0-2.62,0-.42,0-.74,0-.92a.89.89,0,0,1,.14-.57,4.07,4.07,0,0,1,.83-1,3.8,3.8,0,0,1,4.25-.55c4.31,1.93,7.81,7,6.4,12.39a30.42,30.42,0,0,0-1.06,5.5l1.46-.13A71.42,71.42,0,0,1,61.66,42a36.66,36.66,0,0,1,4.4.43c3.23.55,4.74,2.49,4.74,5.69a7.92,7.92,0,0,1-1.17,4c1.4,2.29.44,6.54-1.77,7.93.69,3,.13,5.31-2.28,7.19C65.65,70.89,64.65,73,62.74,73.88Z" transform="translate(-30 -24)"/></svg>